<?xml version="1.0" encoding="utf-8"?>
<!-- Generator: Adobe Illustrator 25.2.3, SVG Export Plug-In . SVG Version: 6.00 Build 0)  -->
<svg version="1.1" id="Capa_1" xmlns="http://www.w3.org/2000/svg" xmlns:xlink="http://www.w3.org/1999/xlink" x="0px" y="0px"
	 viewBox="0 0 1354.17 671" style="enable-background:new 0 0 1354.17 671;" xml:space="preserve">
<style type="text/css">
	.st0{fill:#FF0111;}
	.st1{fill:#0060F5;}
	.st2{fill:#00C100;}
	.st3{fill:#FFCC00;}
	.st4{fill:#F8F8F8;}
	.st5{fill:#060606;}
	.st6{enable-background:new    ;}
</style>
<g>
	<path class="st0" d="M326.04,467.43l12.83-51.48l-17.24-37.28l-28.06-18.84c0,0-25.25-29.66-26.05-31.26s-15.86-42.89-15.86-42.89
		s-47.07,19.24-47.87,20.44s-46.9,67.51-46.5,70.43c0.4,2.92,8.82,45.41,9.22,46.61c0.4,1.2,39.28,34.07,40.08,35.27
		c0.8,1.2,77.36,18.44,77.36,18.44L326.04,467.43z"/>
	<path class="st1" d="M250.05,286.35l9.04-63.59l-40.47,9.62l-49.11,37.31c0,0-33.92,62.5-34.29,66.9
		c-0.37,4.41-3.18,36.88,2.03,44.69c5.21,7.82,20.04,26.94,20.04,26.94s7.62-23.13,8.82-26.94c1.2-3.81,0.8-49.39,20.04-58.06
		s42.89-23.5,42.89-23.5L250.05,286.35z"/>
	<path class="st2" d="M384.36,230.77l-34.87-40.88c0,0-87.5-31.25-114.84-10.22c0,0-30.99,10.22-38.04,16.83s-55.3,55.92-55.3,55.92
		s-14.88,51.22-14.88,56.27s4.81,17.14,4.81,17.14s18.64-47.99,30.06-53.49s59.52-50.41,80.57-52s59.06-13.62,86.05-7
		C354.9,219.95,384.36,230.77,384.36,230.77z"/>
	<path class="st3" d="M343.85,310.8c0,0,23.55,27.63,27.22,38.13s15.09,56.97,13.29,59.29s-7.82,22.76-7.82,22.76
		s38.48-39.08,38.48-42.09s22.85-69.39,8.42-91.47s-18.64-39.75-18.64-39.75L343.85,310.8z"/>
	<path class="st3" d="M295.71,358.24l33.52-32.4l17.78-7.68l24.05,23.78c0,0,6.68,28.59,6.41,29.93s-8.02,10.56-8.02,10.56
		l-66.78-9.23L295.71,358.24z"/>
	<path class="st4" d="M293.57,359.84l43.3-46.7l70.93-64.03l-46.9-28.77c0,0-46.9-5.8-50.5-5.8s-51.32,8.22-51.32,8.22l-3.69,68.54
		l24.67,52.58L293.57,359.84z"/>
	<path class="st5" d="M338.93,390.51c1.97,7.64,4.38,15.23,5.86,23c3.51,18.42,2.49,36.71-2.93,54.68c-0.41,1.35-1.95,2.76-3.3,3.35
		c-24.86,10.81-50.89,14.82-77.8,12.19c-36.66-3.58-68.55-18.14-95.07-43.7c-27.23-26.24-43.44-58.26-47.74-95.96
		c-8.46-74.24,33.59-142.63,103.37-168.47c83.58-30.94,177.72,14.35,205.56,99.13c14.74,44.9,9.94,88.29-12.15,129.71
		c-9.78,18.34-26.31,29.76-44.28,39.2c-0.3,0.16-0.73,0.08-1.5,0.14c4.11-17.26,4.86-34.63,4.74-51.93
		C361.83,391.4,350.42,390.96,338.93,390.51z M272.81,467.43c19.14-0.04,35.2-2.68,50.71-8.26c1.64-0.59,3.68-2.43,4-4
		c4.86-24.23,1.5-47.34-10.28-69.09c-1.08-1.99-3.13-3.87-5.19-4.85c-34.1-16.33-56.32-42.6-66.31-79.06
		c-1.59-5.8-1.16-5.35-6.66-3.49c-50.62,17.15-79.47,70.01-66.45,121.82c0.51,2.03,1.77,4.13,3.27,5.6
		C203.53,453.21,236.86,466.69,272.81,467.43z M396.74,255.69c-5.4-3.8-10.14-7.44-15.17-10.61
		c-31.58-19.88-65.93-27.62-103.06-23.8c-4.89,0.5-7.35,2.38-9.36,6.56c-17.89,37.14-11.56,82.31,15.97,112.81
		c3.76,4.17,3.76,4.16,7.96,0.7c31.27-25.8,62.55-51.6,93.81-77.41C389.99,261.4,393.04,258.8,396.74,255.69z M250.05,228.07
		c-0.64-0.16-0.91-0.32-1.13-0.27c-0.64,0.12-1.27,0.29-1.88,0.51c-41.65,14.43-72.91,41.17-93.57,80.01
		c-11.22,21.09-15.49,43.51-9.31,67.1c1.65,6.29,4.43,12.28,6.7,18.4c0.44-0.12,0.88-0.23,1.31-0.35c0.12-1.25,0.26-2.51,0.35-3.76
		c0.75-11.26,2.53-22.34,6.43-32.97c13.85-37.83,39.95-63.03,78.34-75.29c3.57-1.14,4.62-2.57,4.82-6.4
		c0.52-9.75,1.54-19.5,3.07-29.15C246.11,239.91,248.34,234.12,250.05,228.07z M368.1,217.91c-32.96-30.87-88.9-45.38-140.9-26.26
		c-57.95,21.31-88.25,73.29-91.97,117.04c20.45-43.91,52.56-75.8,97.78-93.43C278.18,197.65,323.36,199.49,368.1,217.91z
		 M390.82,408.22c17.29-23.43,26.22-49.63,27.19-78.47c0.69-20.58-2.85-40.42-11.28-60.07c-17.12,14.12-33.67,27.78-50.45,41.61
		C382.31,338.84,393.45,371.03,390.82,408.22z M302.68,355.61c0.67,0.79,0.87,1.15,1.18,1.36c19.51,13.23,41.1,18.76,64.54,17.51
		c2.58-0.14,3.02-1.37,2.44-3.62c-4.48-17.58-12.99-32.91-25.45-46.1c-1.85-1.96-3.13-2.01-5.18-0.29
		c-10.2,8.56-20.51,17-30.78,25.48C307.25,351.75,305.09,353.59,302.68,355.61z"/>
	<path class="st5" d="M358.47,257.67c0.03,8.19-6.43,14.69-14.6,14.68c-8.12-0.01-14.74-6.69-14.63-14.74
		c0.1-7.88,6.68-14.49,14.51-14.59C351.77,242.91,358.44,249.55,358.47,257.67z"/>
</g>
<g>
	<g>
		<g class="st6">
			<path class="st5" d="M563.34,399.86v3.12c0,0.58-0.29,0.87-0.87,0.87h-10.53v35.94c0,0.58-0.29,0.87-0.87,0.87h-3.65
				c-0.58,0-0.87-0.29-0.87-0.87v-35.94h-10.48c-0.58,0-0.87-0.29-0.87-0.87v-3.12c0-0.58,0.29-0.87,0.87-0.87h26.39
				C563.05,398.99,563.34,399.28,563.34,399.86z"/>
			<path class="st5" d="M604.38,436.67v3.12c0,0.58-0.29,0.87-0.87,0.87h-20.49c-0.58,0-0.87-0.29-0.87-0.87v-39.93
				c0-0.58,0.29-0.87,0.87-0.87h19.85c0.58,0,0.87,0.29,0.87,0.87v3.12c0,0.58-0.29,0.87-0.87,0.87h-15.34v12.91h13.31
				c0.58,0,0.87,0.29,0.87,0.87v3.13c0,0.58-0.29,0.87-0.87,0.87h-13.31v14.18h15.97C604.09,435.8,604.38,436.09,604.38,436.67z"/>
			<path class="st5" d="M652.25,436.96c-2.89,2.2-7.58,4.28-12.44,4.28c-11.23,0-17.71-6.95-17.71-21.42
				c0-14.47,6.48-21.41,17.71-21.41c4.22,0,7.99,0.87,10.88,2.84c0.35,0.23,0.41,0.69,0.23,1.04l-1.68,2.95
				c-0.29,0.58-0.93,0.58-1.5,0.23c-2.2-1.33-4.75-2.31-7.99-2.31c-7.64,0-12.1,6.02-12.1,16.67c0,10.65,4.46,16.67,12.1,16.67
				c3.76,0,7.18-1.74,9.43-3.3c0.58-0.41,1.22-0.46,1.56,0.12l1.62,2.6C652.59,436.27,652.59,436.73,652.25,436.96z"/>
			<path class="st5" d="M701.33,399.86v39.93c0,0.58-0.29,0.87-0.87,0.87h-3.65c-0.58,0-0.87-0.29-0.87-0.87v-17.88H676.5v17.88
				c0,0.58-0.29,0.87-0.87,0.87h-3.65c-0.58,0-0.87-0.29-0.87-0.87v-39.93c0-0.58,0.29-0.87,0.87-0.87h3.65
				c0.58,0,0.87,0.29,0.87,0.87v17.25h19.45v-17.25c0-0.58,0.29-0.87,0.87-0.87h3.65C701.04,398.99,701.33,399.28,701.33,399.86z"/>
			<path class="st5" d="M754.23,399.86v39.93c0,0.58-0.29,0.87-0.87,0.87h-2.6c-0.46,0-0.81-0.17-1.04-0.52l-20.66-30.62l0.35,30.27
				c0,0.58-0.29,0.87-0.87,0.87h-3.65c-0.58,0-0.87-0.29-0.87-0.87v-39.93c0-0.58,0.29-0.87,0.87-0.87h2.66
				c0.46,0,0.81,0.17,1.04,0.52l20.6,30.56l-0.35-30.21c0-0.58,0.29-0.87,0.87-0.87h3.65C753.94,398.99,754.23,399.28,754.23,399.86
				z"/>
			<path class="st5" d="M774.89,419.83c0-14.47,6.89-21.41,18.75-21.41c11.81,0,18.69,6.95,18.69,21.41
				c0,14.47-6.83,21.42-18.69,21.42C781.78,441.24,774.89,434.3,774.89,419.83z M806.79,419.83c0-11.05-4.92-16.67-13.14-16.67
				c-8.22,0-13.2,5.61-13.2,16.67c0,11.05,4.98,16.67,13.2,16.67C801.87,436.5,806.79,430.88,806.79,419.83z"/>
			<path class="st5" d="M854.83,436.67v3.12c0,0.58-0.29,0.87-0.87,0.87h-20.02c-0.58,0-0.87-0.29-0.87-0.87v-39.93
				c0-0.58,0.29-0.87,0.87-0.87h3.65c0.58,0,0.87,0.29,0.87,0.87v35.94h15.51C854.54,435.8,854.83,436.09,854.83,436.67z"/>
			<path class="st5" d="M869.99,419.83c0-14.47,6.89-21.41,18.75-21.41c11.81,0,18.69,6.95,18.69,21.41
				c0,14.47-6.83,21.42-18.69,21.42C876.88,441.24,869.99,434.3,869.99,419.83z M901.88,419.83c0-11.05-4.92-16.67-13.14-16.67
				s-13.2,5.61-13.2,16.67c0,11.05,4.98,16.67,13.2,16.67S901.88,430.88,901.88,419.83z"/>
			<path class="st5" d="M958.49,440.66h-1.5c-1.68,0-2.6-1.04-3.01-3.01c-2.66,1.85-6.48,3.59-10.13,3.59
				c-11.23,0-17.71-6.95-17.71-21.42c0-14.47,7-21.41,18.23-21.41c4.23,0,8.39,0.87,11.29,2.84c0.35,0.23,0.41,0.69,0.23,1.04
				l-1.62,2.95c-0.29,0.58-0.93,0.58-1.5,0.23c-2.2-1.33-5.21-2.31-8.45-2.31c-7.7,0-12.62,6.02-12.62,16.67
				c0,10.65,4.46,16.67,12.1,16.67c3.65,0,7.29-2.26,9.61-3.94v-10.13h-9.03c-0.58,0-0.87-0.29-0.87-0.87v-3.12
				c0-0.58,0.29-0.87,0.87-0.87h13.54c0.58,0,0.87,0.29,0.87,0.87v3.12v0.12c0,0.06,0,0.06,0,0.12v11.75c0,2.37,0.17,4.17,0.58,6.25
				C959.47,440.38,959.07,440.66,958.49,440.66z"/>
			<path class="st5" d="M1007.63,400.04l-13.43,22.57v17.19c0,0.58-0.29,0.87-0.87,0.87h-3.65c-0.58,0-0.87-0.29-0.87-0.87v-17.19
				l-13.43-22.57c-0.35-0.58-0.12-1.04,0.64-1.04h3.99c0.46,0,0.87,0.17,1.1,0.58l10.36,17.94l10.36-17.94
				c0.23-0.4,0.64-0.58,1.1-0.58h4.05C1007.75,398.99,1007.98,399.46,1007.63,400.04z"/>
		</g>
	</g>
	<g class="st6">
		<path class="st5" d="M634.23,323.43H580.7l-9.95,24.59h-36.53l55.88-126.58h35.26l56.06,126.58h-37.25L634.23,323.43z
			 M623.74,297.02l-16.28-40.51l-16.27,40.51H623.74z"/>
		<path class="st5" d="M746.88,314.38h-19.53v33.63h-35.8V221.44h57.87c11.45,0,21.4,1.9,29.84,5.7c8.44,3.8,14.95,9.22,19.53,16.27
			c4.58,7.05,6.87,15.34,6.87,24.87c0,9.16-2.14,17.15-6.42,23.96c-4.28,6.81-10.4,12.15-18.36,16l27.31,39.78h-38.34L746.88,314.38
			z M763.88,254.53c-3.74-3.25-9.28-4.88-16.64-4.88h-19.89v37.07h19.89c7.35,0,12.9-1.6,16.64-4.79c3.74-3.19,5.61-7.74,5.61-13.65
			C769.49,262.37,767.62,257.78,763.88,254.53z"/>
		<path class="st5" d="M852.76,342.14c-10.55-5.61-18.84-13.41-24.87-23.42c-6.03-10-9.04-21.34-9.04-34c0-12.66,3.01-23.99,9.04-34
			c6.03-10,14.31-17.81,24.87-23.42c10.55-5.61,22.45-8.41,35.71-8.41c11.57,0,22,2.05,31.28,6.15c9.28,4.1,17,10.01,23.15,17.72
			l-22.78,20.62c-8.2-9.88-18.15-14.83-29.84-14.83c-6.87,0-12.99,1.51-18.35,4.52c-5.37,3.01-9.52,7.26-12.48,12.75
			c-2.96,5.49-4.43,11.79-4.43,18.9c0,7.12,1.48,13.41,4.43,18.9c2.95,5.49,7.11,9.74,12.48,12.75c5.36,3.01,11.48,4.52,18.35,4.52
			c11.69,0,21.64-4.94,29.84-14.83l22.78,20.62c-6.15,7.72-13.86,13.62-23.15,17.72c-9.28,4.1-19.71,6.15-31.28,6.15
			C875.21,350.55,863.31,347.75,852.76,342.14z"/>
		<path class="st5" d="M1041.46,323.43h-53.53l-9.95,24.59h-36.53l55.88-126.58h35.26l56.06,126.58h-37.25L1041.46,323.43z
			 M1030.97,297.02l-16.28-40.51l-16.28,40.51H1030.97z"/>
		<path class="st5" d="M1124.73,342.05c-10.67-5.67-19.05-13.5-25.14-23.51c-6.09-10.01-9.13-21.28-9.13-33.82
			c0-12.54,3.04-23.81,9.13-33.82c6.09-10,14.47-17.84,25.14-23.51c10.67-5.67,22.69-8.5,36.08-8.5s25.41,2.83,36.08,8.5
			c10.67,5.67,19.05,13.5,25.14,23.51c6.09,10.01,9.13,21.28,9.13,33.82c0,12.54-3.05,23.81-9.13,33.82
			c-6.09,10.01-14.47,17.84-25.14,23.51c-10.67,5.67-22.69,8.5-36.08,8.5S1135.4,347.72,1124.73,342.05z M1178.17,316.37
			c5.18-3.01,9.28-7.26,12.3-12.75c3.01-5.48,4.52-11.78,4.52-18.9c0-7.11-1.51-13.41-4.52-18.9c-3.02-5.48-7.12-9.73-12.3-12.75
			c-5.18-3.01-10.97-4.52-17.36-4.52c-6.39,0-12.18,1.51-17.36,4.52c-5.19,3.01-9.29,7.26-12.3,12.75
			c-3.01,5.49-4.52,11.79-4.52,18.9c0,7.12,1.51,13.41,4.52,18.9c3.01,5.49,7.11,9.74,12.3,12.75c5.18,3.01,10.97,4.52,17.36,4.52
			C1167.2,320.89,1172.99,319.39,1178.17,316.37z"/>
	</g>
</g>
</svg>
